{"glyphs":{"0":{"ha":1221,"x_min":0,"x_max":0,"o":""},"1":{"ha":678,"x_min":0,"x_max":0,"o":""},"2":{"ha":1221,"x_min":0,"x_max":0,"o":""},"3":{"ha":1221,"x_min":0,"x_max":0,"o":""},"4":{"ha":1221,"x_min":0,"x_max":0,"o":""},"5":{"ha":1221,"x_min":0,"x_max":0,"o":""},"6":{"ha":1221,"x_min":0,"x_max":0,"o":""},"7":{"ha":1221,"x_min":0,"x_max":0,"o":""},"8":{"ha":1221,"x_min":0,"x_max":0,"o":""},"9":{"ha":1221,"x_min":0,"x_max":0,"o":""}," ":{"ha":345,"x_min":0,"x_max":0,"o":""},"!":{"ha":373,"x_min":0,"x_max":0,"o":""},"\"":{"ha":746,"x_min":0,"x_max":0,"o":""},"#":{"ha":1221,"x_min":0,"x_max":0,"o":""},"$":{"ha":1221,"x_min":0,"x_max":0,"o":""},"%":{"ha":1038,"x_min":0,"x_max":0,"o":""},"&":{"ha":936,"x_min":0,"x_max":0,"o":""},"'":{"ha":373,"x_min":0,"x_max":0,"o":""},"(":{"ha":678,"x_min":0,"x_max":0,"o":""},")":{"ha":678,"x_min":0,"x_max":0,"o":""},"*":{"ha":563,"x_min":0,"x_max":0,"o":""},"+":{"ha":1221,"x_min":0,"x_max":0,"o":""},",":{"ha":373,"x_min":0,"x_max":0,"o":""},"-":{"ha":882,"x_min":0,"x_max":0,"o":""},".":{"ha":373,"x_min":0,"x_max":0,"o":""},"/":{"ha":1038,"x_min":0,"x_max":0,"o":""},":":{"ha":373,"x_min":0,"x_max":0,"o":""},";":{"ha":373,"x_min":0,"x_max":0,"o":""},"<":{"ha":1017,"x_min":0,"x_max":0,"o":""},"=":{"ha":1221,"x_min":0,"x_max":0,"o":""},">":{"ha":1085,"x_min":0,"x_max":0,"o":""},"?":{"ha":1221,"x_min":0,"x_max":0,"o":""},"@":{"ha":1221,"x_min":0,"x_max":0,"o":""},"A":{"ha":1221,"x_min":0,"x_max":1153,"o":"m 294 353 l 294 4 q 290 0 294 0 l 5 0 q 0 4 0 0 l 0 968 q 5 972 1 972 l 1148 972 q 1153 968 1153 972 l 1153 4 q 1148 0 1153 0 l 863 0 q 859 4 859 0 l 859 353 l 294 353 m 294 618 l 859 618 l 859 707 l 294 707 l 294 618 z "},"B":{"ha":1221,"x_min":0,"x_max":1153,"o":"m 1149 972 q 1153 968 1153 972 l 1153 4 q 1149 0 1153 0 l 5 0 q 0 4 0 0 l 0 968 q 5 972 1 972 l 1149 972 m 294 618 l 859 618 l 859 707 l 294 707 l 294 618 m 294 265 l 859 265 l 859 353 l 294 353 l 294 265 z "},"C":{"ha":1221,"x_min":0,"x_max":1153,"o":"m 0 968 q 5 972 1 972 l 1149 972 q 1153 968 1153 972 l 1153 711 q 1149 707 1153 707 l 294 707 l 294 265 l 1149 265 q 1153 261 1153 264 l 1153 4 q 1149 0 1153 0 l 5 0 q 0 4 0 0 l 0 968 z "},"D":{"ha":1221,"x_min":0,"x_max":1153,"o":"m 5 972 l 732 972 q 935 897 833 962 q 1078 753 1025 835 q 1151 559 1133 667 l 1153 537 l 1153 444 q 1086 239 1153 366 q 805 20 1001 90 q 714 0 762 9 l 5 0 q 0 4 0 0 l 0 968 q 5 972 1 972 m 292 707 l 292 265 l 618 265 q 840 420 780 265 q 851 488 851 454 q 714 690 851 621 q 618 707 670 707 l 292 707 z "},"E":{"ha":1221,"x_min":0,"x_max":1153,"o":"m 0 968 q 5 972 1 972 l 1149 972 q 1153 968 1153 972 l 1153 711 q 1149 707 1153 707 l 294 707 l 294 618 l 1149 618 q 1153 614 1153 617 l 1153 357 q 1149 353 1153 353 l 294 353 l 294 265 l 1149 265 q 1153 261 1153 264 l 1153 4 q 1149 0 1153 0 l 5 0 q 0 4 0 0 l 0 968 z "},"F":{"ha":1221,"x_min":0,"x_max":1153,"o":"m 0 968 q 5 972 1 972 l 1148 972 q 1153 968 1153 972 l 1153 711 q 1148 707 1153 707 l 294 707 l 294 618 l 1148 618 q 1153 614 1153 617 l 1153 357 q 1148 353 1153 353 l 294 353 l 294 4 q 290 0 294 0 l 5 0 q 0 4 0 0 l 0 968 z "},"G":{"ha":1221,"x_min":0,"x_max":1153,"o":"m 1148 972 q 1153 968 1153 972 l 1153 711 q 1148 707 1153 707 l 294 707 l 294 265 l 859 265 l 859 355 l 391 355 q 387 359 387 355 l 387 611 q 391 616 387 616 l 1148 616 q 1153 611 1153 615 l 1153 4 q 1148 0 1153 0 l 5 0 q 0 4 0 0 l 0 968 q 5 972 1 972 l 1148 972 z "},"H":{"ha":1221,"x_min":0,"x_max":1153,"o":"m 287 972 q 292 968 292 972 l 292 629 l 859 629 l 859 968 q 863 972 860 972 l 1148 972 q 1153 968 1153 972 l 1153 4 q 1148 0 1153 0 l 863 0 q 859 4 859 0 l 859 342 l 292 342 l 292 4 q 287 0 292 0 l 5 0 q 0 4 0 0 l 0 968 q 5 972 1 972 l 287 972 z "},"I":{"ha":373,"x_min":0,"x_max":305,"o":"m 300 972 q 305 968 305 972 l 305 4 q 300 0 305 0 l 5 0 q 0 4 0 0 l 0 968 q 5 972 1 972 l 300 972 z "},"J":{"ha":1221,"x_min":0,"x_max":1153,"o":"m 1149 972 q 1153 968 1153 972 l 1153 4 q 1149 0 1153 0 l 5 0 q 0 4 0 0 l 0 261 q 5 265 1 265 l 859 265 l 859 968 q 864 972 860 972 l 1149 972 z "},"K":{"ha":1221,"x_min":0,"x_max":1153,"o":"m 291 972 q 296 968 296 972 l 296 627 l 298 627 q 866 972 816 944 l 1148 972 q 1153 968 1153 972 l 1153 846 q 838 659 1140 834 q 778 620 779 623 l 778 353 q 1151 130 784 345 l 1153 126 l 1153 4 q 1148 0 1153 0 l 869 0 q 553 189 861 0 q 296 346 305 343 l 296 4 q 291 0 296 0 l 5 0 q 0 4 0 0 l 0 968 q 5 972 1 972 l 291 972 z "},"L":{"ha":1221,"x_min":0,"x_max":1153,"o":"m 290 972 q 294 968 294 972 l 294 265 l 1148 265 q 1153 261 1153 264 l 1153 4 q 1148 0 1153 0 l 5 0 q 0 4 0 0 l 0 968 q 5 972 1 972 l 290 972 z "},"M":{"ha":1221,"x_min":0,"x_max":1153,"o":"m 1149 972 q 1153 968 1153 972 l 1153 4 q 1149 0 1153 0 l 863 0 q 859 4 859 0 l 859 705 l 722 705 l 722 4 q 718 0 722 0 l 433 0 q 429 4 429 0 l 429 705 l 294 705 l 294 4 q 290 0 294 0 l 5 0 q 0 4 0 0 l 0 968 q 5 972 1 972 l 1149 972 z "},"N":{"ha":1221,"x_min":0,"x_max":1153,"o":"m 1148 972 q 1153 968 1153 972 l 1153 4 q 1148 0 1153 0 l 863 0 q 859 4 859 0 l 859 705 l 294 705 l 294 4 q 290 0 294 0 l 5 0 q 0 4 0 0 l 0 968 q 5 972 1 972 l 1148 972 z "},"O":{"ha":1221,"x_min":0,"x_max":1153,"o":"m 1148 972 q 1153 968 1153 972 l 1153 4 q 1148 0 1153 0 l 5 0 q 0 4 0 0 l 0 968 q 5 972 1 972 l 1148 972 m 294 265 l 859 265 l 859 707 l 294 707 l 294 265 z "},"P":{"ha":1221,"x_min":0,"x_max":1153,"o":"m 0 968 q 5 972 1 972 l 1149 972 q 1153 968 1153 972 l 1153 357 q 1149 353 1153 353 l 294 353 l 294 4 q 290 0 294 0 l 5 0 q 0 4 0 0 l 0 968 m 296 618 l 860 618 l 860 707 l 296 707 l 296 618 z "},"Q":{"ha":1221,"x_min":0,"x_max":1153,"o":"m 1149 972 q 1153 968 1153 972 l 1153 4 q 1149 0 1153 0 l 5 0 q 0 4 0 0 l 0 968 q 5 972 1 972 l 1149 972 m 294 265 l 654 265 l 654 353 q 659 357 654 357 l 859 357 l 859 707 l 294 707 l 294 265 z "},"R":{"ha":1221,"x_min":0,"x_max":1153,"o":"m 0 968 q 5 972 1 972 l 1148 972 q 1153 968 1153 972 l 1153 357 q 1148 353 1153 353 l 775 353 l 775 350 q 1153 126 1141 138 l 1153 4 q 1148 0 1153 0 l 867 0 q 552 189 861 0 q 294 346 304 343 l 294 4 q 290 0 294 0 l 5 0 q 0 4 0 0 l 0 968 m 294 618 l 859 618 l 859 707 l 294 707 l 294 618 z "},"S":{"ha":1221,"x_min":0,"x_max":1153,"o":"m 1148 972 q 1153 968 1153 972 l 1153 711 q 1148 707 1153 707 l 294 707 l 294 621 l 1148 621 q 1153 616 1153 620 l 1153 4 q 1148 0 1153 0 l 5 0 q 0 4 0 0 l 0 261 q 5 265 1 265 l 859 265 l 859 353 l 5 353 q 0 357 0 353 l 0 968 q 5 972 1 972 l 1148 972 z "},"T":{"ha":1221,"x_min":0,"x_max":1153,"o":"m 420 701 l 5 701 q 0 705 0 701 l 0 968 q 5 972 1 972 l 1149 972 q 1153 968 1153 972 l 1153 705 q 1149 701 1153 701 l 730 701 l 730 4 q 726 0 730 0 l 425 0 q 420 4 420 0 l 420 701 z "},"U":{"ha":1221,"x_min":0,"x_max":1153,"o":"m 290 972 q 294 968 294 972 l 294 268 l 859 268 l 859 968 q 863 972 860 972 l 1148 972 q 1153 968 1153 972 l 1153 4 q 1148 0 1153 0 l 5 0 q 0 4 0 0 l 0 968 q 5 972 1 972 l 290 972 z "},"V":{"ha":1221,"x_min":0,"x_max":1153,"o":"m 462 0 q 168 618 206 541 q 0 972 0 967 l 336 972 l 576 475 q 700 727 577 475 q 819 972 806 956 l 1153 972 l 1153 970 q 885 409 1128 915 q 688 0 711 40 l 462 0 z "},"W":{"ha":1221,"x_min":0,"x_max":1153,"o":"m 0 968 q 5 972 0 972 l 290 972 q 294 968 294 972 l 294 268 l 429 268 l 429 968 q 433 972 429 972 l 718 972 q 722 968 722 972 l 722 268 l 859 268 l 859 968 q 863 972 859 972 l 1149 972 q 1153 968 1153 972 l 1153 4 q 1149 0 1153 1 l 5 0 q 0 4 1 0 l 0 968 z "},"X":{"ha":1221,"x_min":0,"x_max":1153,"o":"m 284 972 q 578 796 292 972 q 869 972 859 972 l 1149 972 q 1153 968 1153 972 l 1153 846 q 838 659 1141 834 q 779 620 779 623 l 779 353 q 1151 130 785 345 l 1153 126 l 1153 4 q 1149 0 1153 0 l 869 0 q 576 176 861 0 q 284 0 294 0 l 5 0 q 0 4 0 0 l 0 126 q 315 313 12 138 q 375 353 374 350 l 375 620 q 2 842 369 628 l 0 846 l 0 968 q 5 972 1 972 l 284 972 z "},"Y":{"ha":1221,"x_min":0,"x_max":1153,"o":"m 290 972 q 294 968 294 972 l 294 620 l 859 620 l 859 968 q 863 972 860 972 l 1148 972 q 1153 968 1153 972 l 1153 357 q 1148 353 1153 353 l 722 353 l 722 4 q 718 0 722 0 l 435 0 q 431 4 431 0 l 431 353 l 5 353 q 0 357 0 353 l 0 968 q 5 972 1 972 l 290 972 z "},"Z":{"ha":1221,"x_min":0,"x_max":1153,"o":"m 1149 972 q 1153 968 1153 972 l 1153 357 q 1149 353 1153 353 l 294 353 l 294 265 l 1149 265 q 1153 261 1153 264 l 1153 4 q 1149 0 1153 0 l 5 0 q 0 4 0 0 l 0 616 q 5 620 1 620 l 859 620 l 859 707 l 5 707 q 0 711 0 707 l 0 968 q 5 972 1 972 l 1149 972 z "},"[":{"ha":678,"x_min":0,"x_max":0,"o":""},"\\":{"ha":1038,"x_min":0,"x_max":0,"o":""},"]":{"ha":678,"x_min":0,"x_max":0,"o":""},"^":{"ha":612,"x_min":0,"x_max":0,"o":""},"_":{"ha":1221,"x_min":0,"x_max":0,"o":""},"`":{"ha":441,"x_min":0,"x_max":0,"o":""},"a":{"ha":1221,"x_min":0,"x_max":1153,"o":"m 294 353 l 294 4 q 290 0 294 0 l 5 0 q 0 4 0 0 l 0 968 q 5 972 1 972 l 1148 972 q 1153 968 1153 972 l 1153 4 q 1148 0 1153 0 l 863 0 q 859 4 859 0 l 859 353 l 294 353 m 294 618 l 859 618 l 859 707 l 294 707 l 294 618 z "},"b":{"ha":1221,"x_min":0,"x_max":1153,"o":"m 1149 972 q 1153 968 1153 972 l 1153 4 q 1149 0 1153 0 l 5 0 q 0 4 0 0 l 0 968 q 5 972 1 972 l 1149 972 m 294 618 l 859 618 l 859 707 l 294 707 l 294 618 m 294 265 l 859 265 l 859 353 l 294 353 l 294 265 z "},"c":{"ha":1221,"x_min":0,"x_max":1153,"o":"m 0 968 q 5 972 1 972 l 1149 972 q 1153 968 1153 972 l 1153 711 q 1149 707 1153 707 l 294 707 l 294 265 l 1149 265 q 1153 261 1153 264 l 1153 4 q 1149 0 1153 0 l 5 0 q 0 4 0 0 l 0 968 z "},"d":{"ha":1221,"x_min":0,"x_max":1153,"o":"m 5 972 l 732 972 q 935 897 833 962 q 1078 753 1025 835 q 1151 559 1133 667 l 1153 537 l 1153 444 q 1086 239 1153 366 q 805 20 1001 90 q 714 0 762 9 l 5 0 q 0 4 0 0 l 0 968 q 5 972 1 972 m 292 707 l 292 265 l 618 265 q 840 420 780 265 q 851 488 851 454 q 714 690 851 621 q 618 707 670 707 l 292 707 z "},"e":{"ha":1221,"x_min":0,"x_max":1153,"o":"m 0 968 q 5 972 1 972 l 1149 972 q 1153 968 1153 972 l 1153 711 q 1149 707 1153 707 l 294 707 l 294 618 l 1149 618 q 1153 614 1153 617 l 1153 357 q 1149 353 1153 353 l 294 353 l 294 265 l 1149 265 q 1153 261 1153 264 l 1153 4 q 1149 0 1153 0 l 5 0 q 0 4 0 0 l 0 968 z "},"f":{"ha":1221,"x_min":0,"x_max":1153,"o":"m 0 968 q 5 972 1 972 l 1148 972 q 1153 968 1153 972 l 1153 711 q 1148 707 1153 707 l 294 707 l 294 618 l 1148 618 q 1153 614 1153 617 l 1153 357 q 1148 353 1153 353 l 294 353 l 294 4 q 290 0 294 0 l 5 0 q 0 4 0 0 l 0 968 z "},"g":{"ha":1221,"x_min":0,"x_max":1153,"o":"m 1148 972 q 1153 968 1153 972 l 1153 711 q 1148 707 1153 707 l 294 707 l 294 265 l 859 265 l 859 355 l 391 355 q 387 359 387 355 l 387 611 q 391 616 387 616 l 1148 616 q 1153 611 1153 615 l 1153 4 q 1148 0 1153 0 l 5 0 q 0 4 0 0 l 0 968 q 5 972 1 972 l 1148 972 z "},"h":{"ha":1221,"x_min":0,"x_max":1153,"o":"m 287 972 q 292 968 292 972 l 292 629 l 859 629 l 859 968 q 863 972 860 972 l 1148 972 q 1153 968 1153 972 l 1153 4 q 1148 0 1153 0 l 863 0 q 859 4 859 0 l 859 342 l 292 342 l 292 4 q 287 0 292 0 l 5 0 q 0 4 0 0 l 0 968 q 5 972 1 972 l 287 972 z "},"i":{"ha":373,"x_min":0,"x_max":305,"o":"m 300 972 q 305 968 305 972 l 305 4 q 300 0 305 0 l 5 0 q 0 4 0 0 l 0 968 q 5 972 1 972 l 300 972 z "},"j":{"ha":1221,"x_min":0,"x_max":1153,"o":"m 1149 972 q 1153 968 1153 972 l 1153 4 q 1149 0 1153 0 l 5 0 q 0 4 0 0 l 0 261 q 5 265 1 265 l 859 265 l 859 968 q 864 972 860 972 l 1149 972 z "},"k":{"ha":1221,"x_min":0,"x_max":1153,"o":"m 291 972 q 296 968 296 972 l 296 627 l 298 627 q 866 972 816 944 l 1148 972 q 1153 968 1153 972 l 1153 846 q 838 659 1140 834 q 778 620 779 623 l 778 353 q 1151 130 784 345 l 1153 126 l 1153 4 q 1148 0 1153 0 l 869 0 q 553 189 861 0 q 296 346 305 343 l 296 4 q 291 0 296 0 l 5 0 q 0 4 0 0 l 0 968 q 5 972 1 972 l 291 972 z "},"l":{"ha":1221,"x_min":0,"x_max":1153,"o":"m 290 972 q 294 968 294 972 l 294 265 l 1148 265 q 1153 261 1153 264 l 1153 4 q 1148 0 1153 0 l 5 0 q 0 4 0 0 l 0 968 q 5 972 1 972 l 290 972 z "},"m":{"ha":1221,"x_min":0,"x_max":1153,"o":"m 1149 972 q 1153 968 1153 972 l 1153 4 q 1149 0 1153 0 l 863 0 q 859 4 859 0 l 859 705 l 722 705 l 722 4 q 718 0 722 0 l 433 0 q 429 4 429 0 l 429 705 l 294 705 l 294 4 q 290 0 294 0 l 5 0 q 0 4 0 0 l 0 968 q 5 972 1 972 l 1149 972 z "},"n":{"ha":1221,"x_min":0,"x_max":1153,"o":"m 1148 972 q 1153 968 1153 972 l 1153 4 q 1148 0 1153 0 l 863 0 q 859 4 859 0 l 859 705 l 294 705 l 294 4 q 290 0 294 0 l 5 0 q 0 4 0 0 l 0 968 q 5 972 1 972 l 1148 972 z "},"o":{"ha":1221,"x_min":0,"x_max":1153,"o":"m 1148 972 q 1153 968 1153 972 l 1153 4 q 1148 0 1153 0 l 5 0 q 0 4 0 0 l 0 968 q 5 972 1 972 l 1148 972 m 294 265 l 859 265 l 859 707 l 294 707 l 294 265 z "},"p":{"ha":1221,"x_min":0,"x_max":1153,"o":"m 0 968 q 5 972 1 972 l 1149 972 q 1153 968 1153 972 l 1153 357 q 1149 353 1153 353 l 294 353 l 294 4 q 290 0 294 0 l 5 0 q 0 4 0 0 l 0 968 m 296 618 l 860 618 l 860 707 l 296 707 l 296 618 z "},"q":{"ha":1221,"x_min":0,"x_max":1153,"o":"m 1149 972 q 1153 968 1153 972 l 1153 4 q 1149 0 1153 0 l 5 0 q 0 4 0 0 l 0 968 q 5 972 1 972 l 1149 972 m 294 265 l 654 265 l 654 353 q 659 357 654 357 l 859 357 l 859 707 l 294 707 l 294 265 z "},"r":{"ha":1221,"x_min":0,"x_max":1153,"o":"m 0 968 q 5 972 1 972 l 1148 972 q 1153 968 1153 972 l 1153 357 q 1148 353 1153 353 l 775 353 l 775 350 q 1153 126 1141 138 l 1153 4 q 1148 0 1153 0 l 867 0 q 552 189 861 0 q 294 346 304 343 l 294 4 q 290 0 294 0 l 5 0 q 0 4 0 0 l 0 968 m 294 618 l 859 618 l 859 707 l 294 707 l 294 618 z "},"s":{"ha":1221,"x_min":0,"x_max":1153,"o":"m 1148 972 q 1153 968 1153 972 l 1153 711 q 1148 707 1153 707 l 294 707 l 294 621 l 1148 621 q 1153 616 1153 620 l 1153 4 q 1148 0 1153 0 l 5 0 q 0 4 0 0 l 0 261 q 5 265 1 265 l 859 265 l 859 353 l 5 353 q 0 357 0 353 l 0 968 q 5 972 1 972 l 1148 972 z "},"t":{"ha":1221,"x_min":0,"x_max":1153,"o":"m 420 701 l 5 701 q 0 705 0 701 l 0 968 q 5 972 1 972 l 1149 972 q 1153 968 1153 972 l 1153 705 q 1149 701 1153 701 l 730 701 l 730 4 q 726 0 730 0 l 425 0 q 420 4 420 0 l 420 701 z "},"u":{"ha":1221,"x_min":0,"x_max":1153,"o":"m 290 972 q 294 968 294 972 l 294 268 l 859 268 l 859 968 q 863 972 860 972 l 1148 972 q 1153 968 1153 972 l 1153 4 q 1148 0 1153 0 l 5 0 q 0 4 0 0 l 0 968 q 5 972 1 972 l 290 972 z "},"v":{"ha":1221,"x_min":0,"x_max":1153,"o":"m 462 0 q 168 618 206 541 q 0 972 0 967 l 336 972 l 576 475 q 700 727 577 475 q 819 972 806 956 l 1153 972 l 1153 970 q 885 409 1128 915 q 688 0 711 40 l 462 0 z "},"w":{"ha":1221,"x_min":0,"x_max":1153,"o":"m 0 968 q 5 972 0 972 l 290 972 q 294 968 294 972 l 294 268 l 429 268 l 429 968 q 433 972 429 972 l 718 972 q 722 968 722 972 l 722 268 l 859 268 l 859 968 q 863 972 859 972 l 1149 972 q 1153 968 1153 972 l 1153 4 q 1149 0 1153 1 l 5 0 q 0 4 1 0 l 0 968 z "},"x":{"ha":1221,"x_min":0,"x_max":1153,"o":"m 284 972 q 578 796 292 972 q 869 972 859 972 l 1149 972 q 1153 968 1153 972 l 1153 846 q 838 659 1141 834 q 779 620 779 623 l 779 353 q 1151 130 785 345 l 1153 126 l 1153 4 q 1149 0 1153 0 l 869 0 q 576 176 861 0 q 284 0 294 0 l 5 0 q 0 4 0 0 l 0 126 q 315 313 12 138 q 375 353 374 350 l 375 620 q 2 842 369 628 l 0 846 l 0 968 q 5 972 1 972 l 284 972 z "},"y":{"ha":1221,"x_min":0,"x_max":1153,"o":"m 290 972 q 294 968 294 972 l 294 620 l 859 620 l 859 968 q 863 972 860 972 l 1148 972 q 1153 968 1153 972 l 1153 357 q 1148 353 1153 353 l 722 353 l 722 4 q 718 0 722 0 l 435 0 q 431 4 431 0 l 431 353 l 5 353 q 0 357 0 353 l 0 968 q 5 972 1 972 l 290 972 z "},"z":{"ha":1221,"x_min":0,"x_max":1153,"o":"m 1149 972 q 1153 968 1153 972 l 1153 357 q 1149 353 1153 353 l 294 353 l 294 265 l 1149 265 q 1153 261 1153 264 l 1153 4 q 1149 0 1153 0 l 5 0 q 0 4 0 0 l 0 616 q 5 620 1 620 l 859 620 l 859 707 l 5 707 q 0 711 0 707 l 0 968 q 5 972 1 972 l 1149 972 z "},"{":{"ha":882,"x_min":0,"x_max":0,"o":""},"|":{"ha":271,"x_min":0,"x_max":0,"o":""},"}":{"ha":882,"x_min":0,"x_max":0,"o":""},"~":{"ha":746,"x_min":0,"x_max":0,"o":""},"¡":{"ha":373,"x_min":0,"x_max":0,"o":""},"¢":{"ha":868,"x_min":0,"x_max":0,"o":""},"£":{"ha":990,"x_min":0,"x_max":0,"o":""},"¤":{"ha":875,"x_min":0,"x_max":0,"o":""},"¥":{"ha":949,"x_min":0,"x_max":0,"o":""},"¦":{"ha":237,"x_min":0,"x_max":0,"o":""},"§":{"ha":909,"x_min":0,"x_max":0,"o":""},"¨":{"ha":746,"x_min":0,"x_max":0,"o":""},"©":{"ha":1221,"x_min":0,"x_max":0,"o":""},"ª":{"ha":407,"x_min":0,"x_max":0,"o":""},"«":{"ha":1085,"x_min":0,"x_max":0,"o":""},"¬":{"ha":882,"x_min":0,"x_max":0,"o":""},"®":{"ha":1221,"x_min":0,"x_max":0,"o":""},"¯":{"ha":1220,"x_min":0,"x_max":0,"o":""},"°":{"ha":407,"x_min":0,"x_max":0,"o":""},"±":{"ha":590,"x_min":0,"x_max":0,"o":""},"²":{"ha":407,"x_min":0,"x_max":0,"o":""},"³":{"ha":407,"x_min":0,"x_max":0,"o":""},"´":{"ha":441,"x_min":0,"x_max":0,"o":""},"µ":{"ha":1221,"x_min":0,"x_max":0,"o":""},"¶":{"ha":844,"x_min":0,"x_max":0,"o":""},"·":{"ha":373,"x_min":0,"x_max":0,"o":""},"¸":{"ha":380,"x_min":0,"x_max":0,"o":""},"¹":{"ha":305,"x_min":0,"x_max":0,"o":""},"º":{"ha":312,"x_min":0,"x_max":0,"o":""},"»":{"ha":1085,"x_min":0,"x_max":0,"o":""},"¼":{"ha":868,"x_min":0,"x_max":0,"o":""},"½":{"ha":868,"x_min":0,"x_max":0,"o":""},"¾":{"ha":868,"x_min":0,"x_max":0,"o":""},"¿":{"ha":1221,"x_min":0,"x_max":0,"o":""},"À":{"ha":916,"x_min":0,"x_max":0,"o":""},"Á":{"ha":916,"x_min":0,"x_max":0,"o":""},"Â":{"ha":916,"x_min":0,"x_max":0,"o":""},"Ã":{"ha":916,"x_min":0,"x_max":0,"o":""},"Ä":{"ha":916,"x_min":0,"x_max":0,"o":""},"Å":{"ha":1221,"x_min":0,"x_max":0,"o":"z "},"Æ":{"ha":1336,"x_min":0,"x_max":0,"o":""},"Ç":{"ha":1139,"x_min":0,"x_max":0,"o":""},"È":{"ha":916,"x_min":0,"x_max":0,"o":""},"É":{"ha":916,"x_min":0,"x_max":0,"o":""},"Ê":{"ha":916,"x_min":0,"x_max":0,"o":""},"Ë":{"ha":916,"x_min":-1,"x_max":0,"o":"m 0 324 q -1 357 0 347 q 0 393 0 372 l 0 324 z "},"Ì":{"ha":549,"x_min":0,"x_max":0,"o":""},"Í":{"ha":549,"x_min":0,"x_max":0,"o":""},"Î":{"ha":441,"x_min":0,"x_max":0,"o":""},"Ï":{"ha":441,"x_min":0,"x_max":0,"o":""},"Ð":{"ha":1221,"x_min":0,"x_max":0,"o":""},"Ñ":{"ha":916,"x_min":0,"x_max":0,"o":""},"Ò":{"ha":783,"x_min":0,"x_max":0,"o":""},"Ó":{"ha":783,"x_min":0,"x_max":0,"o":""},"Ô":{"ha":790,"x_min":0,"x_max":0,"o":""},"Õ":{"ha":783,"x_min":0,"x_max":0,"o":""},"Ö":{"ha":783,"x_min":0,"x_max":0,"o":""},"×":{"ha":936,"x_min":0,"x_max":0,"o":""},"Ø":{"ha":827,"x_min":0,"x_max":0,"o":""},"Ù":{"ha":1221,"x_min":0,"x_max":0,"o":""},"Ú":{"ha":1221,"x_min":0,"x_max":0,"o":""},"Û":{"ha":1221,"x_min":0,"x_max":0,"o":""},"Ü":{"ha":1221,"x_min":0,"x_max":0,"o":""},"Ý":{"ha":916,"x_min":0,"x_max":0,"o":""},"Þ":{"ha":644,"x_min":0,"x_max":0,"o":""},"ß":{"ha":1221,"x_min":0,"x_max":0,"o":""},"à":{"ha":916,"x_min":0,"x_max":0,"o":""},"á":{"ha":916,"x_min":0,"x_max":0,"o":""},"â":{"ha":916,"x_min":0,"x_max":0,"o":""},"ã":{"ha":916,"x_min":0,"x_max":0,"o":""},"ä":{"ha":916,"x_min":0,"x_max":0,"o":""},"å":{"ha":916,"x_min":0,"x_max":0,"o":""},"æ":{"ha":1336,"x_min":0,"x_max":0,"o":""},"ç":{"ha":814,"x_min":0,"x_max":0,"o":""},"è":{"ha":916,"x_min":0,"x_max":0,"o":""},"é":{"ha":916,"x_min":0,"x_max":0,"o":""},"ê":{"ha":916,"x_min":0,"x_max":0,"o":""},"ë":{"ha":916,"x_min":0,"x_max":0,"o":""},"ì":{"ha":549,"x_min":0,"x_max":0,"o":""},"í":{"ha":549,"x_min":0,"x_max":0,"o":""},"î":{"ha":509,"x_min":0,"x_max":0,"o":""},"ï":{"ha":454,"x_min":0,"x_max":0,"o":""},"ð":{"ha":831,"x_min":0,"x_max":0,"o":""},"ñ":{"ha":916,"x_min":0,"x_max":0,"o":""},"ò":{"ha":916,"x_min":0,"x_max":0,"o":""},"ó":{"ha":916,"x_min":0,"x_max":0,"o":""},"ô":{"ha":916,"x_min":0,"x_max":0,"o":""},"õ":{"ha":916,"x_min":0,"x_max":0,"o":""},"ö":{"ha":916,"x_min":0,"x_max":0,"o":""},"÷":{"ha":882,"x_min":0,"x_max":0,"o":""},"ø":{"ha":868,"x_min":0,"x_max":0,"o":""},"ù":{"ha":916,"x_min":0,"x_max":0,"o":""},"ú":{"ha":916,"x_min":0,"x_max":0,"o":""},"û":{"ha":916,"x_min":0,"x_max":0,"o":""},"ü":{"ha":916,"x_min":0,"x_max":0,"o":""},"ý":{"ha":1221,"x_min":0,"x_max":0,"o":""},"þ":{"ha":793,"x_min":0,"x_max":0,"o":""},"ÿ":{"ha":1221,"x_min":0,"x_max":0,"o":""},"ı":{"ha":332,"x_min":0,"x_max":0,"o":""},"ˆ":{"ha":509,"x_min":0,"x_max":0,"o":""},"ˇ":{"ha":509,"x_min":0,"x_max":0,"o":""},"ˉ":{"ha":699,"x_min":0,"x_max":0,"o":""},"˘":{"ha":678,"x_min":0,"x_max":0,"o":""},"˙":{"ha":387,"x_min":0,"x_max":0,"o":""},"˚":{"ha":387,"x_min":0,"x_max":0,"o":""},"˛":{"ha":380,"x_min":0,"x_max":0,"o":""},"˜":{"ha":678,"x_min":0,"x_max":0,"o":""},"˝":{"ha":705,"x_min":0,"x_max":0,"o":""},"–":{"ha":882,"x_min":0,"x_max":0,"o":""},"—":{"ha":1390,"x_min":0,"x_max":0,"o":""},"‘":{"ha":441,"x_min":0,"x_max":0,"o":""},"’":{"ha":441,"x_min":0,"x_max":0,"o":""},"‚":{"ha":441,"x_min":0,"x_max":0,"o":""},"“":{"ha":705,"x_min":0,"x_max":0,"o":""},"”":{"ha":705,"x_min":0,"x_max":0,"o":""},"„":{"ha":705,"x_min":0,"x_max":0,"o":""},"†":{"ha":949,"x_min":0,"x_max":0,"o":""},"‡":{"ha":949,"x_min":0,"x_max":0,"o":""},"•":{"ha":543,"x_min":0,"x_max":0,"o":""},"…":{"ha":1051,"x_min":0,"x_max":0,"o":""},"‹":{"ha":610,"x_min":0,"x_max":0,"o":""},"›":{"ha":610,"x_min":0,"x_max":0,"o":""},"⁄":{"ha":800,"x_min":0,"x_max":0,"o":""},"₣":{"ha":1139,"x_min":0,"x_max":0,"o":""},"₤":{"ha":990,"x_min":0,"x_max":0,"o":""},"₧":{"ha":1607,"x_min":0,"x_max":0,"o":""},"€":{"ha":549,"x_min":0,"x_max":0,"o":""},"№":{"ha":1729,"x_min":0,"x_max":0,"o":""},"™":{"ha":949,"x_min":0,"x_max":0,"o":""},"∂":{"ha":705,"x_min":0,"x_max":0,"o":""},"∆":{"ha":766,"x_min":0,"x_max":0,"o":""},"∏":{"ha":1221,"x_min":0,"x_max":0,"o":""},"∑":{"ha":746,"x_min":0,"x_max":0,"o":""},"−":{"ha":882,"x_min":0,"x_max":0,"o":""},"√":{"ha":610,"x_min":0,"x_max":0,"o":""},"∞":{"ha":939,"x_min":0,"x_max":0,"o":""},"∫":{"ha":227,"x_min":0,"x_max":0,"o":""},"≈":{"ha":746,"x_min":0,"x_max":0,"o":""},"≤":{"ha":610,"x_min":0,"x_max":0,"o":""},"≥":{"ha":610,"x_min":0,"x_max":0,"o":""},"":{"ha":728,"x_min":0,"x_max":0,"o":""},"":{"ha":733,"x_min":0,"x_max":0,"o":""}}}
